<svg width="6.0872mm" height="15.875mm" version="1.1" viewBox="0 0 6.0872664 15.874948" xmlns="http://www.w3.org/2000/svg">
 <g transform="matrix(.078721 0 0 .078721 -7.6946 -5.1375)">
  <path transform="scale(.26458)" d="m424.54 603.36v12.041h8.2539l9.9375-12.041z" fill="none" stroke="#001a33" stroke-linecap="square" stroke-linejoin="round" stroke-width="3.7795" style="paint-order:markers stroke fill"/>
 </g>
 <g transform="matrix(.078721 0 0 .078721 -7.6946 -5.1375)" fill="none" stroke="#001a33">
  <g stroke-width="3">
   <path d="m123.89 73.748 25.47 0.24188 23.947 63.61-23.199 20.954 2.6458 106.86h-50.14"/>
   <path d="m149.67 119.83-0.30998-45.837"/>
   <path d="m122.23 67.816 3.4396 10.477-18.078 16.036-7.6251-8.0036z"/>
   <path d="m110.55 77.785h-12.204"/>
   <path d="m122.65 66.945h-24.181"/>
   <circle cx="105.35" cy="102.93" r=".66146"/>
   <circle cx="106.27" cy="161.8" r=".66146"/>
   <circle cx="106.27" cy="143.28" r=".66146"/>
   <circle cx="106.27" cy="123.43" r=".66146"/>
   <circle cx="106.27" cy="179.26" r=".66146"/>
   <path d="m117.74 159.68 10.98 10.98"/>
   <circle cx="123.56" cy="171.59" r=".66146"/>
  </g>
  <path d="m98.293 102.53 1.6768-16.206" stroke-linecap="square" stroke-linejoin="round" style="paint-order:markers stroke fill"/>
  <path d="m161.27 106.17-48.945 59.302 9.3654 10.424 28.419-17.341" stroke-width="3"/>
 </g>
</svg>
