<svg width="19.286mm" height="15.875mm" version="1.1" viewBox="0 0 19.285963 15.875" xmlns="http://www.w3.org/2000/svg">
 <path d="m0 4.0884c3.2117-0.062363 9.9875-1.8435 9.6847-0.53435-0.15856 0.41027-3.9397 1-5.9868 1.5903 3.7418 0.18708 12.466-0.60272 11.176 0.90853-0.3361 0.16145-4.9267 0.51449-7.39 0.88867 2.6816 0.062363 8.6469-0.56758 8.0448 0.42095-0.33793 0.61644-5.1615 0.34222-7.694 0.63142 2.7129 0.18705 7.8464-0.24153 7.2263 0.79513-0.58956 0.36261-4.8643 0.23386-7.2965 0.35079 2.1515 0.21827 6.7616-0.19566 6.4546 0.65481-0.46814 0.70533-6.8363 0.10003-14.219 0.37418" fill="none" stroke="#001a33" stroke-linecap="square" stroke-linejoin="round" stroke-width=".26458" style="paint-order:markers stroke fill"/>
</svg>
