<svg width="8.7486mm" height="15.875mm" version="1.1" viewBox="0 0 8.7486048 15.875436" xmlns="http://www.w3.org/2000/svg">
 <g transform="matrix(.11482 0 0 .11482 -11.337 -7.3852)" fill="none" stroke="#001a33">
  <path d="m98.897 65.444h23.194l0.2877 4.2376h-23.649" stroke-width="2.2462"/>
  <path d="m122.73 65.758 26.631 8.2319 23.947 63.61-23.199 20.954v42.656h-50.14" stroke-width="2.753"/>
  <path d="m149.67 118.52-0.30998-44.527" stroke-width="2.753"/>
  <path d="m161.27 106.17-52.385 56.127 15.715 15.715 25.508-19.457" stroke-width="2"/>
  <g stroke-width="2">
   <path d="m122.73 65.758-21.328 71.842-1.4325 63.61"/>
   <path d="m101.4 137.6 24.696-42.282-4.4901-7.4835 7.8577-2.2451-6.7352-19.831"/>
   <circle cx="129.91" cy="166.56" r="1.3229"/>
   <circle cx="134.94" cy="163.12" r="1.3229"/>
   <circle cx="109.54" cy="146.98" r="1.3229"/>
   <circle cx="109.54" cy="168.68" r="1.3229"/>
  </g>
 </g>
</svg>
