<svg width="5.1106mm" height="15.875mm" version="1.1" viewBox="0 0 5.1106124 15.874598" xmlns="http://www.w3.org/2000/svg">
 <g transform="translate(-101.64 -224.58)">
  <path d="m102.38 234.84v0.22134h0.15173l0.18267-0.22134z" fill="none" stroke="#001a33" stroke-linecap="square" stroke-linejoin="round" stroke-width=".069476" style="paint-order:markers stroke fill"/>
 </g>
 <g transform="translate(-101.64 -224.58)" stroke="#001a33">
  <g fill="none" stroke-width=".20843">
   <path d="m103.69 229.19 0.89355 0.18914 2.0372 3.9311-2.1288 1.8004 0.51814 5.2412h-3.2824"/>
   <path d="m104.6 232.62-0.0215-3.242"/>
   <path d="m102.76 234.84 0.85477 0.87315"/>
   <path d="m105.58 231.35-3.1994 3.8902 0.76096 0.88964 1.3471-1.0255"/>
  </g>
  <g stroke-linecap="square" stroke-linejoin="round">
   <path d="m102.39 231.69h1.1704" fill="#001a33" stroke-width=".14204" style="paint-order:markers stroke fill"/>
   <path d="m103.18 228.9 0.0279-0.56577h-1.436" fill="none" stroke-width=".13418" style="paint-order:markers stroke fill"/>
   <path d="m101.82 224.62c-7e-3 -1e-3 -0.1102 0.0261-0.14218 0.0326v0.93862c7e-3 9e-3 0.0136 0.0174 0.0158 0.0178 6e-3 9.2e-4 0.13205-0.0462 0.13758-0.0451 6e-3 1e-3 3e-3 0.0507 9e-3 0.0519 5e-3 1e-3 0.0714-0.0105 0.0768-9e-3 5e-3 1e-3 0.0292 0.0976 0.0346 0.0992 5e-3 2e-3 0.11914-0.0436 0.12448-0.0419 5e-3 2e-3 -2e-3 0.0227 3e-3 0.0246 5e-3 2e-3 0.11525 9e-3 0.12045 0.0114 5e-3 2e-3 0.0211 0.0501 0.0263 0.0523 5e-3 2e-3 0.10919-0.0314 0.11428-0.029 5e-3 2e-3 -0.0129 0.0935-8e-3 0.0959 5e-3 2e-3 0.12454-0.0153 0.1295-0.0127 5e-3 3e-3 -0.0199 0.0577-0.0151 0.0604 5e-3 3e-3 0.13329 0.0294 0.13805 0.0323 5e-3 3e-3 4e-3 0.0648 8e-3 0.0678 5e-3 3e-3 0.10818-0.0147 0.1127-0.0114 5e-3 3e-3 9e-3 0.0525 0.0133 0.0558 4e-3 3e-3 0.087-5e-3 0.0914-2e-3 4e-3 3e-3 -0.0283 0.10468-0.0241 0.10838 4e-3 4e-3 0.11478 0.0203 0.11891 0.0241 4e-3 4e-3 0.0101 0.0564 0.0141 0.0603 4e-3 4e-3 0.0635 0.0264 0.0674 0.0303 4e-3 4e-3 2e-3 0.0578 5e-3 0.0619 4e-3 4e-3 0.10281-0.0165 0.10652-0.0123 4e-3 4e-3 -0.0318 0.1322-0.0284 0.13662 3e-3 4e-3 0.0971-0.0429 0.10041-0.0384 3e-3 5e-3 -0.0266 0.10245-0.0234 0.107 3e-3 5e-3 0.061 7e-3 0.064 0.0119 3e-3 5e-3 0.0132 0.12435 0.0161 0.12912 3e-3 5e-3 0.0877-0.0109 0.0904-6e-3 3e-3 5e-3 -9e-3 0.13489-6e-3 0.1399 3e-3 5e-3 0.0187-0.0218 0.021-0.0168 2e-3 5e-3 -0.0206 0.0902-0.0184 0.0954 2e-3 5e-3 0.11612 0.023 0.11819 0.0283 2e-3 5e-3 -0.0844 0.0664-0.0826 0.0716 2e-3 5e-3 0.13059 0.0514 0.1323 0.0567 2e-3 5e-3 -0.0889 0.10631-0.0874 0.11171 1e-3 5e-3 0.0982-7e-3 0.0996-1e-3 1e-3 5e-3 -0.0201 0.12647-0.0188 0.13193 1e-3 5e-3 0.0518 0.0422 0.0529 0.0477 1e-3 5e-3 -0.0189 0.0887-0.0178 0.0942 1e-3 5e-3 0.0425 9e-3 0.0433 0.0147 7.7e-4 6e-3 -0.0482 0.0861-0.0475 0.0916 7e-4 6e-3 0.0471 0.0798 0.0474 0.0853 3.5e-4 6e-3 -0.0213 0.0484-0.021 0.054 2.8e-4 6e-3 0.0602 0.018 0.0601 0.0236-7e-5 6e-3 -0.11151 0.10797-0.11166 0.11351-1.4e-4 6e-3 0.11604 0.0262 0.11564 0.0317-4.1e-4 6e-3 -0.0642 0.0538-0.0647 0.0594-5.6e-4 6e-3 0.0447 0.0653 0.0442 0.0709-5.5e-4 6e-3 -0.1016 0.0439-0.10243 0.0494-8.2e-4 5e-3 0.0556 0.0651 0.0545 0.0706-1e-3 5e-3 -0.058 0.0793-0.0591 0.0847-1e-3 5e-3 0.0295 0.0444 0.028 0.0497-1e-3 5e-3 -0.0612 0.0384-0.0627 0.0438-1e-3 5e-3 0.0222 0.0906 0.0204 0.0958-2e-3 5e-3 -0.0317 0.0754-0.0336 0.0807-2e-3 5e-3 0.0244 0.0841 0.0225 0.0894-2e-3 5e-3 -0.1011-0.0159-0.10336-0.0108-2e-3 5e-3 0.0401 0.10961 0.0378 0.11467-2e-3 5e-3 -0.11942 0.0157-0.12186 0.0207-2e-3 5e-3 0.0645 0.12508 0.0619 0.13-3e-3 5e-3 -0.0885 0.0243-0.0914 0.0291-3e-3 5e-3 0.0377 0.0422 0.0346 0.0469-3e-3 5e-3 -0.10383 8e-3 -0.10685 0.0125-3e-3 5e-3 0.0202 0.0754 0.0171 0.0799-3e-3 5e-3 -0.11311 0.0363-0.11643 0.0408-3e-3 5e-3 0.0146 0.10424 0.0109 0.10847-4e-3 4e-3 -0.0876-0.0101-0.0914-6e-3 -4e-3 4e-3 0.0229 0.10844 0.019 0.11247-4e-3 4e-3 -0.0978-0.0367-0.10171-0.0327-4e-3 4e-3 0.017 0.12764 0.0129 0.13144-4e-3 4e-3 -0.0632-0.0493-0.0674-0.0456-4e-3 4e-3 -6e-3 0.14005-0.0105 0.14365-4e-3 4e-3 -0.0984-0.0283-0.10279-0.0248-4e-3 3e-3 -0.0512 0.0938-0.0557 0.0971-5e-3 3e-3 -0.0328-0.01-0.0374-6e-3 -5e-3 3e-3 -0.046 0.0626-0.0506 0.0657-5e-3 3e-3 -0.0942-0.0301-0.099-0.0273-5e-3 3e-3 2e-3 0.10011-2e-3 0.10279-5e-3 3e-3 -0.0929-0.06-0.0979-0.0576-5e-3 2e-3 -5e-3 0.108-0.01 0.11045-5e-3 2e-3 -0.0852-6.8e-4 -0.0904 1e-3 -5e-3 2e-3 -0.0698 0.0779-0.075 0.0799-5e-3 2e-3 -0.0676-0.0254-0.0729-0.0235-5e-3 2e-3 -0.058 0.0286-0.0633 0.0304-5e-3 2e-3 -0.0298-0.0388-0.0352-0.0374-5e-3 1e-3 -0.0618 0.0926-0.0672 0.0939-5e-3 1e-3 -0.0701-0.0275-0.0756-0.0263-5e-3 1e-3 -0.0361 0.043-0.0415 0.0441-5e-3 1e-3 -0.0652-0.071-0.0708-0.07-5e-3 7.9e-4 -0.0756 0.0665-0.10193 0.0885v0.42725c0.0375 0.0273 0.0756 0.055 0.0796 0.0545 8e-3 -9.3e-4 0.0169-0.0938 0.0247-0.0951 8e-3 -1e-3 0.14426-9e-3 0.15205-0.0109 8e-3 -1e-3 0.0214-0.0632 0.0291-0.065 8e-3 -2e-3 0.17697 0.0508 0.18458 0.0488 8e-3 -2e-3 0.0484-0.10653 0.056-0.1088 8e-3 -2e-3 0.0998 0.095 0.10728 0.0925 7e-3 -3e-3 0.0544-0.15035 0.0618-0.15306 7e-3 -3e-3 0.0682 0.0448 0.0755 0.042 7e-3 -3e-3 0.0926-0.0728 0.0998-0.0758 7e-3 -3e-3 0.0531 0.0741 0.0602 0.0709 7e-3 -3e-3 0.0663-0.13353 0.0733-0.13699 7e-3 -3e-3 0.1281-6e-3 0.13493-0.0101 7e-3 -4e-3 0.0725-0.0749 0.0793-0.0788 7e-3 -4e-3 0.0578-9e-3 0.0644-0.0135 7e-3 -4e-3 0.0637-0.0635 0.0702-0.0677 7e-3 -4e-3 0.0673 0.0143 0.0735 0.01 6e-3 -5e-3 0.0593-0.12911 0.0654-0.13385 6e-3 -5e-3 0.093 0.0284 0.0989 0.0236 6e-3 -5e-3 -0.015-0.18311-9e-3 -0.18793 6e-3 -5e-3 0.16952 0.0209 0.1751 0.0157 6e-3 -5e-3 0.0142-0.12106 0.0196-0.12643 5e-3 -5e-3 0.11502 0.0319 0.1202 0.0263 5e-3 -6e-3 -0.0549-0.16835-0.0498-0.17403 5e-3 -6e-3 0.16004 0.057 0.16483 0.0511 5e-3 -6e-3 -0.0241-0.11179-0.0195-0.11776 5e-3 -6e-3 0.1026-0.081 0.10728-0.087 5e-3 -6e-3 -0.0302-0.0799-0.0258-0.086 4e-3 -6e-3 0.17047-0.0123 0.17471-0.0186 4e-3 -6e-3 -0.0881-0.10525-0.0844-0.11174 4e-3 -6e-3 0.11676-0.0198 0.12035-0.0263 4e-3 -7e-3 0.0163-0.16674 0.0198-0.17337 3e-3 -7e-3 0.0651-0.0125 0.0683-0.0192 3e-3 -7e-3 -0.0152-0.10862-0.0123-0.11543 3e-3 -7e-3 0.11326-0.0715 0.11615-0.0784 3e-3 -7e-3 -0.0412-0.0837-0.0386-0.0907 3e-3 -7e-3 0.0701-0.0495 0.0725-0.0565 2e-3 -7e-3 0.0135-0.12815 0.0155-0.13531 2e-3 -7e-3 0.0772-0.0233 0.0789-0.0305 2e-3 -7e-3 -0.0715-0.1157-0.0699-0.12294 2e-3 -7e-3 0.0679-0.0626 0.0691-0.0698 1e-3 -7e-3 -0.079-0.0318-0.0779-0.0391 1e-3 -7e-3 0.10839-0.0932 0.10925-0.1006 8.6e-4 -7e-3 -0.0193-0.0905-0.0187-0.0978 6.3e-4 -7e-3 0.0241-0.10131 0.0245-0.10862 4.2e-4 -7e-3 -0.0696-0.0572-0.0696-0.0646 3e-5 -7e-3 0.14788-0.0895 0.14791-0.0968 4e-5 -7e-3 -0.0987-0.0682-0.099-0.0756-2.8e-4 -7e-3 5e-3 -0.0761 4e-3 -0.0834-5.5e-4 -7e-3 -0.0904-0.12669-0.0911-0.13403-7.3e-4 -7e-3 0.12954-0.0378 0.12821-0.045-1e-3 -7e-3 -0.11946-0.13336-0.12085-0.14066-1e-3 -7e-3 0.0801-0.0734 0.0783-0.0806-2e-3 -7e-3 -0.15556-0.0161-0.15726-0.0233-2e-3 -7e-3 0.0582-0.0937 0.0562-0.1009-2e-3 -7e-3 -0.0894-0.0939-0.0918-0.10096-2e-3 -7e-3 0.0643-0.0526 0.0617-0.0596-3e-3 -7e-3 -0.0558-0.0778-0.0586-0.0847-3e-3 -7e-3 0.049-0.11094 0.0459-0.11779-3e-3 -7e-3 -0.18086-0.0181-0.18411-0.0248-3e-3 -7e-3 0.0716-0.18042 0.0679-0.18696-4e-3 -7e-3 -0.13977 0.0512-0.1435 0.0446-4e-3 -7e-3 0.0635-0.13091 0.0594-0.13727-4e-3 -6e-3 -0.092-0.0777-0.0961-0.084-4e-3 -6e-3 0.0306-0.12088 0.0261-0.12704-4e-3 -6e-3 -0.15787 0.0196-0.16246 0.0136-5e-3 -6e-3 0.0665-0.13516 0.0618-0.14108-5e-3 -6e-3 -0.17185-0.0361-0.17685-0.0417-5e-3 -6e-3 1e-3 -0.0568-4e-3 -0.0625-5e-3 -6e-3 -0.14308-8e-3 -0.14838-0.0136-5e-3 -5e-3 0.0305-0.17034 0.025-0.17559-6e-3 -5e-3 -0.1643 0.0339-0.16989 0.0287-6e-3 -5e-3 0.0542-0.078 0.0483-0.0828-6e-3 -5e-3 -0.15308-0.0388-0.15908-0.0436-6e-3 -5e-3 0.0446-0.054 0.0382-0.0584-6e-3 -4e-3 -0.15843-0.0287-0.16472-0.0331-6e-3 -4e-3 -0.0193-0.0918-0.0258-0.0962-6e-3 -4e-3 -0.11117 0.0169-0.11783 0.0129-7e-3 -4e-3 -0.0184-0.12292-0.0252-0.1268-7e-3 -4e-3 -0.16783 0.0222-0.1747 0.0186-7e-3 -4e-3 -0.0514-0.11948-0.0584-0.12282-7e-3 -3e-3 -0.0351 0.0746-0.0423 0.0715-7e-3 -3e-3 -0.0589-0.1464-0.0661-0.14952-7e-3 -3e-3 -0.16421 0.071-0.17162 0.0684-7e-3 -3e-3 -0.0259-0.15536-0.0334-0.15782-7e-3 -2e-3 -0.10317 0.13072-0.11072 0.12847-8e-3 -2e-3 -0.0785-0.14059-0.0862-0.14261-8e-3 -2e-3 -0.0559 0.0188-0.0636 0.0169-8e-3 -2e-3 -0.0569-0.0792-0.0646-0.0809-8e-3 -2e-3 -0.17082 0.0984-0.17858 0.097-8e-3 -1e-3 -0.0242-0.12834-0.032-0.12957z" fill="none" stroke-width=".082176" style="paint-order:markers stroke fill"/>
  </g>
 </g>
</svg>
