<svg width="7.1462mm" height="15.875mm" version="1.1" viewBox="0 0 7.1460822 15.875055" xmlns="http://www.w3.org/2000/svg">
 <g transform="matrix(.20429 0 0 .20429 -22.368 -16.354)" fill="none" stroke="#001a33">
  <path d="m110.6 103.06c-2.1911-24.329 28.729-33.707 32.676-0.66146 0.67453 29.052-0.66147 13.361-0.1323 39.82-0.40169 15.928-21.053 22.367-26.26 0.52917-2.9104-25.665-0.66585-8.9341-6.2839-39.688" stroke-width="2"/>
  <g stroke-linecap="square" stroke-linejoin="round">
   <ellipse cx="130.18" cy="140.63" rx="8.2021" ry="11.377" style="paint-order:markers stroke fill"/>
   <path d="m110.77 100.81c13.433 4.1488 23.774 1.0034 31.665-1.7743" stroke-width="1.2745" style="paint-order:markers stroke fill"/>
   <path d="m120.44 121.91 17.344 4.3791" style="paint-order:markers stroke fill"/>
   <path d="m120.18 115.69 17.344 4.3791" style="paint-order:markers stroke fill"/>
   <path d="m121.71 128.46 15.816-8.3938" style="paint-order:markers stroke fill"/>
   <path d="m120.44 121.91 15.816-8.3938" style="paint-order:markers stroke fill"/>
  </g>
 </g>
</svg>
