<svg width="8.8666mm" height="15.875mm" version="1.1" viewBox="0 0 8.8666495 15.874468" xmlns="http://www.w3.org/2000/svg">
 <g transform="matrix(.11736 0 0 .11736 -11.542 -7.8008)" fill="none" stroke="#001a33">
  <path d="m123.89 73.748 25.47 0.24188 23.947 63.61-23.199 20.954v42.656h-51.463"/>
  <path d="m149.67 119.83-0.30998-45.837"/>
  <path d="m161.27 106.17-48.945 59.302 9.3654 10.424 28.419-17.341"/>
  <path d="m122.23 67.816 3.4396 10.477-18.078 16.036-7.6251-8.0036z"/>
  <path d="m110.55 77.785h-12.204"/>
  <path d="m122.65 66.945h-24.181"/>
  <circle cx="102.7" cy="102.93" r=".66146"/>
  <circle cx="103.63" cy="161.8" r=".66146"/>
  <circle cx="103.63" cy="143.28" r=".66146"/>
  <circle cx="103.63" cy="123.43" r=".66146"/>
  <circle cx="103.63" cy="179.26" r=".66146"/>
  <path d="m117.74 159.68 10.98 10.98"/>
  <circle cx="123.56" cy="171.59" r=".66146"/>
 </g>
</svg>
