<?xml version="1.0" encoding="UTF-8" standalone="no"?>
<!-- Created with Inkscape (http://www.inkscape.org/) -->

<svg
   xmlns:dc="http://purl.org/dc/elements/1.1/"
   xmlns:cc="http://creativecommons.org/ns#"
   xmlns:rdf="http://www.w3.org/1999/02/22-rdf-syntax-ns#"
   xmlns:svg="http://www.w3.org/2000/svg"
   xmlns="http://www.w3.org/2000/svg"
   xmlns:sodipodi="http://sodipodi.sourceforge.net/DTD/sodipodi-0.dtd"
   xmlns:inkscape="http://www.inkscape.org/namespaces/inkscape"
   width="210mm"
   height="297mm"
   viewBox="0 0 210 297"
   version="1.1"
   id="svg8"
   inkscape:version="0.92.2 5c3e80d, 2017-08-06"
   sodipodi:docname="parkaCoat.svg">
  <defs
     id="defs2" />
  <sodipodi:namedview
     id="base"
     pagecolor="#ffffff"
     bordercolor="#666666"
     borderopacity="1.0"
     inkscape:pageopacity="0.0"
     inkscape:pageshadow="2"
     inkscape:zoom="0.64"
     inkscape:cx="360.5993"
     inkscape:cy="515.70405"
     inkscape:document-units="mm"
     inkscape:current-layer="layer1"
     showgrid="false"
     inkscape:window-width="1440"
     inkscape:window-height="855"
     inkscape:window-x="219"
     inkscape:window-y="1058"
     inkscape:window-maximized="0" />
  <metadata
     id="metadata5">
    <rdf:RDF>
      <cc:Work
         rdf:about="">
        <dc:format>image/svg+xml</dc:format>
        <dc:type
           rdf:resource="http://purl.org/dc/dcmitype/StillImage" />
        <dc:title></dc:title>
      </cc:Work>
    </rdf:RDF>
  </metadata>
  <g
     inkscape:groupmode="layer"
     id="layer2"
     inkscape:label="Layer 2">
    <path
       style="fill:none;fill-opacity:1;stroke:#001a33;stroke-width:3.77952766;stroke-linecap:square;stroke-linejoin:round;stroke-miterlimit:4;stroke-dasharray:none;stroke-opacity:1;paint-order:markers stroke fill"
       d="M 424.53711 603.36133 L 424.53711 615.40234 L 432.79102 615.40234 L 442.72852 603.36133 L 424.53711 603.36133 z "
       transform="scale(0.26458333)"
       id="rect909" />
  </g>
  <g
     inkscape:label="Layer 1"
     inkscape:groupmode="layer"
     id="layer1">
    <path
       style="fill:none;stroke:#001a33;stroke-width:3;stroke-linecap:butt;stroke-linejoin:miter;stroke-miterlimit:4;stroke-dasharray:none;stroke-opacity:1"
       d="m 131.12533,78.295945 12.86128,2.722355 29.32169,56.58215 -30.6404,25.91487 7.45791,75.43857 h -47.24588"
       id="path7434"
       inkscape:connector-curvature="0"
       sodipodi:nodetypes="cccccc" />
    <path
       style="fill:none;stroke:#001a33;stroke-width:3;stroke-linecap:butt;stroke-linejoin:miter;stroke-miterlimit:4;stroke-dasharray:none;stroke-opacity:1"
       d="M 144.29659,127.68185 143.98661,81.0183"
       id="path7438"
       inkscape:connector-curvature="0"
       sodipodi:nodetypes="cc" />
    <path
       style="fill:none;fill-opacity:1;stroke:#001a33;stroke-width:3;stroke-miterlimit:4;stroke-dasharray:none;stroke-opacity:1"
       d="m 117.73958,159.68125 12.30313,12.5677"
       id="path9879"
       inkscape:connector-curvature="0"
       sodipodi:nodetypes="cc" />
    <path
       sodipodi:nodetypes="cccc"
       inkscape:connector-curvature="0"
       id="path7440-8"
       d="m 158.37656,109.47685 -46.05137,55.99431 10.95295,12.80502 19.38976,-14.76086"
       style="fill:none;stroke:#001a33;stroke-width:3;stroke-linecap:butt;stroke-linejoin:miter;stroke-miterlimit:4;stroke-dasharray:none;stroke-opacity:1" />
    <path
       style="fill:#001a33;fill-opacity:1;stroke:#001a33;stroke-width:2.04439378;stroke-linecap:square;stroke-linejoin:round;stroke-miterlimit:4;stroke-dasharray:none;stroke-opacity:1;paint-order:markers stroke fill"
       d="m 112.49947,114.30524 h 16.84676"
       id="path1516"
       inkscape:connector-curvature="0"
       sodipodi:nodetypes="cc" />
    <path
       style="fill:none;fill-opacity:1;stroke:#001a33;stroke-width:1.93126714;stroke-linecap:square;stroke-linejoin:round;stroke-miterlimit:4;stroke-dasharray:none;stroke-opacity:1;paint-order:markers stroke fill"
       d="m 123.78873,74.082177 0.40186,-8.143306 -20.66958,0"
       id="path1520"
       inkscape:connector-curvature="0"
       sodipodi:nodetypes="ccc" />
    <path
       style="fill:none;fill-opacity:1;stroke:#001a33;stroke-width:1.18279874;stroke-linecap:square;stroke-linejoin:round;stroke-miterlimit:4;stroke-dasharray:none;stroke-opacity:1;paint-order:markers stroke fill"
       d="m 104.27632,12.553702 c -0.0972,-0.01543 -1.58606,0.376118 -2.04639,0.468999 v 13.509978 c 0.10103,0.131824 0.19512,0.250811 0.2279,0.256258 0.0797,0.01324 1.90067,-0.665163 1.98024,-0.649214 0.0796,0.01595 0.0474,0.729782 0.12661,0.746793 0.0792,0.01701 1.02812,-0.150982 1.10587,-0.130106 0.0777,0.02087 0.41954,1.404962 0.49764,1.427216 0.0781,0.02225 1.71477,-0.627341 1.79163,-0.603062 0.0769,0.02428 -0.0281,0.326105 0.0475,0.353837 0.0756,0.02774 1.65893,0.136004 1.73374,0.164392 0.0748,0.02839 0.30345,0.720885 0.37776,0.752508 0.0743,0.03162 1.57166,-0.451447 1.64486,-0.417132 0.0732,0.03431 -0.18539,1.344969 -0.11266,1.380184 0.0727,0.03522 1.79256,-0.220453 1.86397,-0.182852 0.0714,0.0376 -0.28719,0.830816 -0.21704,0.869867 0.0701,0.03905 1.91846,0.422391 1.98696,0.465043 0.0685,0.04265 0.0508,0.932897 0.11886,0.976238 0.0681,0.04334 1.55707,-0.211649 1.62212,-0.163512 0.065,0.04814 0.12646,0.755862 0.1912,0.802617 0.0647,0.04675 1.25264,-0.07548 1.31517,-0.02506 0.0625,0.05043 -0.40734,1.506679 -0.34675,1.55996 0.0606,0.05328 1.65208,0.292178 1.71152,0.347243 0.0594,0.05507 0.14602,0.812193 0.20361,0.86811 0.0576,0.05592 0.91361,0.379444 0.96996,0.436472 0.0564,0.05703 0.0218,0.832441 0.076,0.890965 0.0541,0.05852 1.47978,-0.236891 1.53324,-0.176697 0.0534,0.0602 -0.45841,1.902874 -0.40876,1.966542 0.0496,0.06367 1.39821,-0.617359 1.44539,-0.552514 0.0472,0.06485 -0.38269,1.474659 -0.33642,1.54018 0.0463,0.06552 0.87824,0.104464 0.92139,0.171863 0.0432,0.0674 0.19072,1.789802 0.23203,1.858413 0.0413,0.06861 1.26314,-0.156702 1.30173,-0.08615 0.0386,0.07055 -0.12651,1.941559 -0.0899,2.013575 0.0366,0.07202 0.26991,-0.314214 0.30283,-0.241314 0.0329,0.0729 -0.29663,1.298806 -0.26459,1.372713 0.032,0.0739 1.67145,0.331638 1.70119,0.406583 0.0297,0.07495 -1.21524,0.955274 -1.18907,1.030742 0.0262,0.07547 1.8797,0.739896 1.90428,0.815804 0.0246,0.07591 -1.27944,1.530119 -1.25781,1.60787 0.0216,0.07775 1.41403,-0.097 1.43402,-0.01978 0.02,0.07722 -0.2887,1.820257 -0.27078,1.898851 0.0179,0.0786 0.74526,0.608146 0.76222,0.686575 0.017,0.07843 -0.27206,1.276796 -0.25683,1.356009 0.0152,0.07922 0.61168,0.131753 0.6227,0.211425 0.011,0.07967 -0.69354,1.238598 -0.68368,1.318645 0.01,0.08005 0.6773,1.147983 0.68213,1.228101 0.005,0.08012 -0.30606,0.697069 -0.30179,0.776682 0.004,0.07961 0.86625,0.259553 0.86507,0.339334 -0.001,0.07977 -1.60506,1.554033 -1.60714,1.633802 -0.002,0.07977 1.67022,0.376519 1.6645,0.456693 -0.006,0.08018 -0.92349,0.774844 -0.93121,0.854481 -0.008,0.07964 0.64389,0.939426 0.63614,1.019754 -0.008,0.08033 -1.46245,0.632012 -1.47433,0.711191 -0.0119,0.07918 0.8002,0.937614 0.78393,1.016678 -0.0163,0.07907 -0.83431,1.140934 -0.85008,1.219309 -0.0158,0.07838 0.42426,0.638573 0.40308,0.715587 -0.0212,0.07701 -0.88089,0.553101 -0.90227,0.630752 -0.0214,0.07765 0.31897,1.30356 0.29352,1.379305 -0.0254,0.07574 -0.45649,1.085635 -0.48369,1.161288 -0.0272,0.07566 0.35145,1.21132 0.32401,1.28656 -0.0274,0.07525 -1.4553,-0.228234 -1.48777,-0.154721 -0.0325,0.07351 0.57656,1.577576 0.54416,1.650505 -0.0324,0.07293 -1.71875,0.225664 -1.7539,0.297576 -0.0352,0.07191 0.92778,1.800366 0.89038,1.87116 -0.0374,0.07079 -1.27326,0.350052 -1.31568,0.41889 -0.0424,0.06884 0.54264,0.60736 0.49868,0.675148 -0.044,0.06779 -1.49452,0.111592 -1.53789,0.179336 -0.0434,0.06774 0.29129,1.085273 0.24546,1.15074 -0.0458,0.06546 -1.62798,0.522321 -1.67587,0.587236 -0.0479,0.06492 0.2096,1.500387 0.1571,1.561278 -0.0525,0.06089 -1.26086,-0.144916 -1.31516,-0.08527 -0.0543,0.05965 0.32895,1.560857 0.27388,1.618859 -0.0551,0.058 -1.40725,-0.528251 -1.46399,-0.471196 -0.0567,0.05705 0.24403,1.837109 0.185,1.891819 -0.059,0.05471 -0.90926,-0.709558 -0.96997,-0.656246 -0.0607,0.05331 -0.0906,2.015826 -0.15141,2.067639 -0.0608,0.05181 -1.41705,-0.40765 -1.4795,-0.357353 -0.0624,0.0503 -0.73638,1.350226 -0.80201,1.397766 -0.0656,0.04754 -0.47239,-0.138887 -0.53847,-0.09363 -0.0661,0.04526 -0.66149,0.901516 -0.72812,0.945909 -0.0666,0.0444 -1.35534,-0.43297 -1.42472,-0.393395 -0.0694,0.03957 0.0345,1.440937 -0.0357,1.479522 -0.0701,0.03858 -1.33709,-0.864427 -1.40922,-0.82943 -0.0721,0.035 -0.0692,1.554498 -0.14159,1.589848 -0.0724,0.03536 -1.22683,-0.0099 -1.30069,0.02154 -0.0739,0.03144 -1.00442,1.1213 -1.07953,1.150298 -0.0751,0.029 -0.97303,-0.366204 -1.04903,-0.338013 -0.076,0.02819 -0.83505,0.411735 -0.91157,0.43779 -0.0765,0.02606 -0.42843,-0.558763 -0.50643,-0.537568 -0.078,0.0212 -0.88878,1.332694 -0.96687,1.351175 -0.0781,0.01848 -1.00944,-0.396182 -1.08778,-0.378893 -0.0784,0.01728 -0.51945,0.61886 -0.5979,0.63515 -0.0785,0.01629 -0.93911,-1.021528 -1.01854,-1.007887 -0.0665,0.01143 -1.08774,0.956935 -1.4671,1.273814 v 6.149729 c 0.5396,0.392396 1.08807,0.791913 1.14567,0.785035 0.11251,-0.01343 0.24391,-1.349588 0.35605,-1.368314 0.11215,-0.01873 2.07634,-0.135822 2.1885,-0.156482 0.11216,-0.02066 0.30765,-0.908966 0.41858,-0.93536 0.11092,-0.02639 2.54716,0.73175 2.65668,0.702401 0.10953,-0.02935 0.69702,-1.53336 0.80616,-1.566115 0.10913,-0.03275 1.43628,1.368117 1.54409,1.331396 0.10781,-0.03672 0.78344,-2.163955 0.88883,-2.203019 0.10539,-0.03906 0.98129,0.644906 1.08624,0.603939 0.10495,-0.04097 1.3321,-1.047235 1.43609,-1.090962 0.10399,-0.04373 0.76387,1.066728 0.8661,1.019754 0.10222,-0.04697 0.95472,-1.922005 1.05471,-1.971818 0.1,-0.04981 1.84372,-0.09325 1.942,-0.145489 0.0983,-0.05224 1.04405,-1.078544 1.14102,-1.134477 0.097,-0.05593 0.83237,-0.13505 0.92707,-0.19428 0.0947,-0.05923 0.91634,-0.913358 1.01079,-0.97404 0.0945,-0.06068 0.96785,0.206413 1.05782,0.141095 0.09,-0.06532 0.85367,-1.858393 0.94206,-1.926545 0.0884,-0.06815 1.33792,0.408761 1.4242,0.339334 0.0863,-0.06943 -0.21606,-2.635636 -0.13074,-2.704985 0.0853,-0.06935 2.43998,0.301301 2.52026,0.225927 0.0803,-0.07537 0.20391,-1.742408 0.28267,-1.819733 0.0788,-0.07732 1.65556,0.458902 1.73013,0.378893 0.0746,-0.08001 -0.7906,-2.423134 -0.71675,-2.504991 0.0739,-0.08185 2.30347,0.820462 2.37246,0.736244 0.069,-0.08422 -0.3466,-1.609007 -0.28008,-1.694901 0.0665,-0.08589 1.47681,-1.166272 1.54409,-1.251836 0.0673,-0.08556 -0.43498,-1.150613 -0.37156,-1.238209 0.0634,-0.0876 2.45358,-0.177327 2.51458,-0.267245 0.061,-0.08992 -1.26801,-1.514876 -1.2144,-1.60831 0.0536,-0.09344 1.68048,-0.284756 1.7322,-0.378454 0.0517,-0.09369 0.23477,-2.399934 0.28422,-2.495319 0.0494,-0.09538 0.93726,-0.179956 0.9834,-0.276914 0.0461,-0.09696 -0.21889,-1.563443 -0.17673,-1.661497 0.0422,-0.09805 1.63018,-1.029575 1.67173,-1.128761 0.0416,-0.09918 -0.59242,-1.204962 -0.55552,-1.305901 0.0369,-0.100939 1.0094,-0.712452 1.04334,-0.813604 0.034,-0.101153 0.19442,-1.844564 0.22325,-1.947642 0.0288,-0.10308 1.11192,-0.335594 1.13636,-0.438671 0.0245,-0.103075 -1.02967,-1.665336 -1.00562,-1.769624 0.024,-0.104285 0.97761,-0.901015 0.99477,-1.005247 0.0171,-0.104234 -1.13735,-0.457768 -1.12086,-0.563064 0.0165,-0.105294 1.56015,-1.341572 1.57251,-1.447874 0.0124,-0.106302 -0.27819,-1.302073 -0.26872,-1.408314 0.009,-0.106244 0.34663,-1.458235 0.35295,-1.563477 0.006,-0.105242 -1.00196,-0.82377 -1.00149,-0.929647 5.3e-4,-0.105876 2.12852,-1.288518 2.12907,-1.393809 5.3e-4,-0.105292 -1.42102,-0.982202 -1.42523,-1.088325 -0.004,-0.10612 0.0711,-1.095118 0.0636,-1.200846 -0.008,-0.105728 -1.30154,-1.823483 -1.31206,-1.929182 -0.0105,-0.105698 1.86459,-0.544078 1.84536,-0.648335 -0.0192,-0.104254 -1.71936,-1.919466 -1.73943,-2.024562 -0.02,-0.105095 1.15258,-1.056772 1.12758,-1.159532 -0.025,-0.102757 -2.23902,-0.231379 -2.26343,-0.335374 -0.0244,-0.103995 0.83757,-1.349273 0.80822,-1.452272 -0.0293,-0.102993 -1.28643,-1.351593 -1.32136,-1.453148 -0.0349,-0.101554 0.9258,-0.757148 0.88728,-0.857559 -0.0385,-0.10041 -0.80265,-1.119824 -0.84336,-1.21975 -0.0407,-0.09992 0.70465,-1.596865 0.66094,-1.69534 -0.0437,-0.09848 -2.60319,-0.260463 -2.64997,-0.356915 -0.0468,-0.09645 1.03033,-2.596766 0.97772,-2.690918 -0.0526,-0.09415 -2.01177,0.736572 -2.0655,0.64262 -0.0537,-0.09394 0.91441,-1.884241 0.85524,-1.975771 -0.0592,-0.09153 -1.32363,-1.11863 -1.38286,-1.209201 -0.0592,-0.09057 0.43989,-1.739978 0.3762,-1.828523 -0.0637,-0.08854 -2.27223,0.282117 -2.33835,0.195159 -0.0661,-0.08695 0.95676,-1.945413 0.88986,-2.030716 -0.0669,-0.0853 -2.47358,-0.519315 -2.54558,-0.600864 -0.072,-0.08155 0.0187,-0.816896 -0.0548,-0.898877 -0.0735,-0.08199 -2.05947,-0.116948 -2.13579,-0.195161 -0.0763,-0.07821 0.43864,-2.451811 0.35915,-2.527407 -0.0795,-0.07559 -2.36479,0.488141 -2.44533,0.413177 -0.0805,-0.07496 0.78068,-1.122702 0.69557,-1.192057 -0.0851,-0.06936 -2.20345,-0.558412 -2.28978,-0.626797 -0.0863,-0.06838 0.64121,-0.776903 0.54983,-0.841297 -0.0914,-0.06439 -2.28031,-0.412477 -2.37091,-0.47691 -0.0906,-0.06444 -0.27795,-1.321173 -0.37052,-1.384141 -0.0926,-0.06296 -1.6002,0.243096 -1.69602,0.18549 -0.0958,-0.05761 -0.26517,-1.769213 -0.36277,-1.825007 -0.0976,-0.05579 -2.41571,0.320099 -2.51458,0.267685 -0.0989,-0.05241 -0.74006,-1.719818 -0.84129,-1.767866 -0.10123,-0.04804 -0.50485,1.073385 -0.60823,1.028544 -0.10339,-0.04484 -0.84731,-2.107205 -0.95085,-2.152031 -0.10353,-0.04483 -2.3635,1.022631 -2.47013,0.98415 -0.10663,-0.03848 -0.37312,-2.236075 -0.48059,-2.271589 -0.10747,-0.03551 -1.48509,1.881565 -1.5937,1.849182 -0.10862,-0.03238 -1.12982,-2.023512 -1.24024,-2.052693 -0.11042,-0.02918 -0.80487,0.270367 -0.9157,0.243509 -0.11084,-0.02686 -0.81867,-1.139423 -0.92915,-1.163925 -0.11047,-0.0245 -2.45875,1.415689 -2.57038,1.395568 -0.11163,-0.02013 -0.34873,-1.847259 -0.46044,-1.865007 z"
       id="path1522"
       inkscape:connector-curvature="0"
       sodipodi:nodetypes="ccccscccccccccccccccscccsscccscccccccscccscccsccscsccscscsccsccccccccscccccccccscccscccsccccscccccccccccccccsccsccccsccccccsccccccscscccccscscsscccscsccscscccsccccccsccccccccscccccscsscccc" />
  </g>
</svg>
