<svg width="77.393mm" height="137.46mm" version="1.1" viewBox="0 0 77.39283 137.45775" xmlns="http://www.w3.org/2000/svg">
 <g transform="translate(-97.679 -65.253)" fill="none" stroke="#001a33">
  <g stroke-width="3">
   <path d="m123.89 73.748 25.47 0.24188 23.947 63.61-23.199 20.954v42.656h-51.992"/>
   <path d="m149.67 119.83-0.30998-45.837"/>
   <path d="m161.27 106.17-48.945 59.302 9.3654 10.424 28.419-17.341"/>
  </g>
  <path d="m122.23 67.816 3.4396 10.477-18.078 16.036-7.6251-8.0036z" stroke-width="3"/>
  <path d="m110.55 77.785h-12.469" stroke-width="3.0323"/>
  <path d="m122.65 66.945h-24.975" stroke-width="3.0488"/>
  <g stroke-width="3">
   <circle cx="101.64" cy="102.93" r=".66146"/>
   <circle cx="102.57" cy="161.8" r=".66146"/>
   <circle cx="102.57" cy="143.28" r=".66146"/>
   <circle cx="102.57" cy="123.43" r=".66146"/>
   <circle cx="102.57" cy="179.26" r=".66146"/>
   <path d="m117.74 159.68l10.98 10.98"/>
   <circle cx="123.56" cy="171.59" r=".66146"/>
  </g>
 </g>
</svg>
